<svg xmlns="http://www.w3.org/2000/svg" viewBox="0 0 23.75 23.75" height="23.75" width="23.75">
    <defs>
        <clipPath id="a">
            <path d="M0 0h14400v14400H0V0z" />
        </clipPath>
        <clipPath id="b">
            <path d="M0 14400h14400V0H0v14400z" />
        </clipPath>
    </defs>
    <g clip-path="url(#a)" transform="matrix(1.25 0 0 -1.25 -8988.875 9009.95)">
        <g clip-path="url(#b)">
            <path d="M7200.017 7207.373c2.522.78 2.593-3.69.44-3.677-1.853.01-2.13 3.155-.44 3.677M7199.023 7197.572c.966.823 2.214 1.58 3.084.823.06.28.216.657.385 1.055 1.383-1.624.83-3.81 2.233-5.024.994-.86 2.605-.334 3.826-1.03.605-.343.705-1.423 1.473-1.323.178 2.697-3.366 1.933-4.71 3.972-.607.924-1.01 2.737-1.176 3.972-.062.477.117 1.13-.146 1.618-.912 1.686-4.62 1.43-6.474.295-.864-2.325-.386-4.698-1.765-6.326-1.3-1.536-4.9-.948-4.56-3.678.922.463.968 1.24 1.913 1.618 1.036.413 2.364.148 3.236.736 1.57 1.06.996 3.787 2.458 5.075" fill-rule="evenodd" />
            <path d="M7201.172 7193.178l.196.193c.595.557 1.536.55 2.23.73-.444 1.088-1.5 2.366-1.516 3.83 0 .367.072.746.24 1.123-.32.028-.638.048-.96.053-.078.002-.16.002-.24.002-.773 0-1.48-.03-2.236-.136-.003-.086-.047-.12-.04-.273.048-.292.004-.582.004-.86-.003-1.74-.848-3.173-1.386-4.313l-.06-.128-.14-.018c-2.258-.247-4.518-.392-5.112-1.962.73-1.47 1.575-1.9 2.615-1.912 2.31-.028 5.535 2.485 8.83 2.504.08 0 .164-.002.247-.005-.196.15-.47.25-.802.34-.546.157-1.19.25-1.66.65l-.21.18z" />
            <path d="M7208 7189.815c.67.422.888.827.89 1.19.01.502-.48 1.104-1.29 1.558a6.145 6.145 0 0 1-2.912.754c-.315 0-.625-.027-.92-.087.796-.277 1.38-.85 1.5-1.812l.036-.286-.287-.004c-1.436-.015-2.978-.097-4.2-.5 2.04-.015 4.17-1.175 5.828-1.163.502 0 .952.1 1.356.35" />
        </g>
    </g>
</svg>