<svg xmlns="http://www.w3.org/2000/svg" viewBox="0 0 23.75 23.75" height="23.75" width="23.75">
    <path d="M11.146.733c3.153-.974 3.242 4.613.552 4.598-2.318-.013-2.665-3.944-.552-4.597" fill-rule="evenodd" />
    <path d="M12.508 6.398c-1.59-.006-3.33.43-4.488 1.14-1.08 2.905-.484 5.872-2.207 7.907C4.188 17.365-.316 16.63.11 20.043c1.154-.58 1.213-1.552 2.394-2.023 1.296-.517 2.955-.185 4.045-.92 1.964-1.325 1.246-4.734 3.073-6.344l.078.63a.58.58 0 0 0-.018.19c.06.364.005.726.005 1.072-.003 2.175-1.06 3.968-1.732 5.393l-.076.16-.177.023c-2.82.308-5.646.49-6.39 2.453.914 1.84 1.97 2.372 3.27 2.388 2.887.035 6.92-3.105 11.036-3.128.102 0 .206.002.31.005-.245-.185-.59-.31-1.002-.424-.683-.195-1.486-.313-2.076-.81l-.262-.227.244-.244c.744-.695 1.92-.686 2.787-.91-.553-1.36-1.875-2.958-1.893-4.787-.002-.428.088-.866.267-1.304.075-.192.158-.39.246-.6 1.73 2.03 1.04 4.766 2.79 6.282 1.242 1.074 3.256.416 4.782 1.285.755.43.88 1.78 1.84 1.654.224-3.37-4.204-2.416-5.884-4.964-.76-1.155-1.267-3.422-1.473-4.965-.078-.597.147-1.413-.182-2.022-.57-1.053-2.014-1.5-3.605-1.508z" />
    <path d="M21.126 22.682c.838-.528 1.11-1.034 1.11-1.486.014-.63-.6-1.382-1.61-1.95-1.005-.567-2.355-.944-3.64-.942-.395 0-.782.034-1.152.11.996.345 1.727 1.06 1.875 2.264l.045.358-.36.005c-1.794.02-3.72.122-5.25.624 2.552.02 5.215 1.47 7.286 1.455.63-.002 1.19-.126 1.696-.438" />
</svg>