<svg xmlns="http://www.w3.org/2000/svg" viewBox="0 0 23.75 23.75" height="23.75" width="23.75">
    <defs>
        <clipPath id="a">
            <path d="M0 0h14400v14400H0V0z" />
        </clipPath>
        <clipPath id="c">
            <path d="M0 14400h14400V0H0v14400z" />
        </clipPath>
    </defs>
    <g clip-path="url(#a)" transform="matrix(1.25 0 0 -1.25 -8988.875 9009.95)">
        <g clip-path="url(#c)">
            <path d="M7208.674 7206.306c-1.358-.855-4.573-3.348-6.88-4.25-1.55-.604-3.227.188-4.35 1.215.736-1.087 2.006-2.18 2.224-3.945.488-3.95-2.44-6.977-3.34-9.815.685 3.166 3.575 5.953 2.936 9.916-.48 2.973-3.277 3.975-4.756 6.172 2.104-.678 3.943-4.117 6.88-3.237 2.488.745 5.23 2.837 7.286 3.946" fill-rule="evenodd" />
            <path d="M7208.674 7206.306c-1.358-.855-4.573-3.348-6.88-4.25-1.55-.604-3.227.188-4.35 1.215.736-1.087 2.006-2.18 2.224-3.945.488-3.95-2.44-6.977-3.34-9.815.685 3.166 3.575 5.953 2.936 9.916-.48 2.973-3.277 3.975-4.756 6.172 2.104-.678 3.943-4.117 6.88-3.237 2.488.745 5.23 2.837 7.286 3.946z" fill="none" stroke="#000" stroke-width="1.5" />
            <path d="M7200.78 7203.765c-1.395.003-1.545 1.623-1.416 2.833.25-.964.09-2.34 1.215-2.43.448.726.12 2.667-.61 2.835-.447.103-.455-.514-.627-.307 1.288 1.892 2.377-1.68 1.438-2.93" fill-rule="evenodd" />
            <path d="M7200.78 7203.765c-1.395.003-1.545 1.623-1.416 2.833.25-.964.09-2.34 1.215-2.43.448.726.12 2.667-.61 2.835-.447.103-.455-.514-.627-.307 1.288 1.892 2.377-1.68 1.438-2.93z" fill="none" stroke="#000" />
            <path d="M7200.33 7195.484c-1.552 2.762 4.36 8.993 6.274 9.516-1.736-1.31-6.972-6.136-6.274-9.213.89.084 2.977 2.037 4.047.506 1.65-2.358-4.447-3.545-5.362-4.856.544 1.764 5.404 1.953 4.958 4.45-.375 2.103-2.587-.452-3.643-.403" fill-rule="evenodd" />
            <path d="M7200.33 7195.484c-1.552 2.762 4.36 8.993 6.274 9.516-1.736-1.31-6.972-6.136-6.274-9.213.89.084 2.977 2.037 4.047.506 1.65-2.358-4.447-3.545-5.362-4.856.544 1.764 5.404 1.953 4.958 4.45-.375 2.103-2.587-.452-3.643-.403z" fill="none" stroke="#000" stroke-width="1.5" />
        </g>
    </g>
</svg>