<svg xmlns="http://www.w3.org/2000/svg" viewBox="0 0 30 23.75" height="23.75" width="30">
    <defs>
        <clipPath id="a">
            <path d="M0 0h14400v14400H0V0z" />
        </clipPath>
        <clipPath id="b">
            <path d="M0 14400h14400V0H0v14400z" />
        </clipPath>
    </defs>
    <g clip-path="url(#a)" transform="matrix(1.25 0 0 -1.25 -8985.237 9013.7)">
        <g clip-path="url(#b)">
            <path d="M7203.483 7209.82c-2.874-1.533-2.1-5.258-2.1-5.258m-.053-9.377s1.29-3.212 4.4-1.645c4.765 2.398 1.065 5.312 1.065 5.312s-.55-.367 1.96 2.18c2.656 2.697 2.198 6.442.18 6.367-4.306-.16-7.056-5.694-7.056-5.694M7199.002 7204.56s.78 3.726-2.096 5.26m1.607-8.113s-2.752 5.532-7.06 5.69c-2.018.077-2.476-3.668.183-6.366 2.506-2.545 1.958-2.178 1.958-2.178s-3.7-2.915 1.068-5.312c3.11-1.567 4.4 1.645 4.4 1.645" fill="none" stroke="#000" stroke-width="1.871" stroke-linecap="round" stroke-linejoin="round" />
        </g>
    </g>
</svg>