<svg xmlns="http://www.w3.org/2000/svg" viewBox="0 0 23.75 23.75" height="23.75" width="23.75">
    <defs>
        <clipPath id="a">
            <path d="M7192 7208.46h18v-18h-18v18z" />
        </clipPath>
    </defs>
    <g clip-path="url(#a)" transform="matrix(1.25 0 0 -1.25 -8989.375 9011.263)">
        <path d="M7200.983 7196.76a1.75 1.75 0 1 0 0-3.5 1.75 1.75 0 0 0 0 3.5" />
        <path d="M7202.804 7203.957a1.75 1.75 0 1 1-3.5 0 1.75 1.75 0 0 1 3.5 0m4.56 1.87a8.937 8.937 0 0 0 2.636-6.363 8.934 8.934 0 0 0-2.636-6.363 8.935 8.935 0 0 0-6.364-2.635 8.933 8.933 0 0 0-6.363 2.636 8.935 8.935 0 0 0-2.637 6.364c0 2.404.936 4.664 2.637 6.364a8.937 8.937 0 0 0 6.363 2.636 8.94 8.94 0 0 0 6.364-2.636m-7.342 2.476a8.827 8.827 0 0 1-5.31-2.552 8.833 8.833 0 0 1-2.604-6.288 8.83 8.83 0 0 1 2.605-6.287 8.825 8.825 0 0 1 6.287-2.606c.326 0 .65.02.97.054a4.474 4.474 0 0 1-.97 8.84 4.473 4.473 0 0 0-.978 8.84" />
    </g>
</svg>