<svg xmlns="http://www.w3.org/2000/svg" viewBox="0 0 36.25 23.75" height="23.75" width="36.25">
    <defs>
        <clipPath id="a">
            <path d="M0 0h14400v14400H0V0z" />
        </clipPath>
        <clipPath id="b">
            <path d="M0 14400h14400V0H0v14400z" />
        </clipPath>
    </defs>
    <g clip-path="url(#a)" transform="matrix(1.25 0 0 -1.25 -8982.112 9013.7)">
        <g clip-path="url(#b)">
            <path d="M7202.144 7193.715c1.126 1.744 2.64 2.888 3.877 4.182 1.257 1.315 2.267 2.723 2.576 5.124h-.052c-.11.002-.247-.005-.403-.007-.207.005-.447.004-.73.127-.295.11-.58.468-.616.825l-.037.254.15.206c1.166 1.523 3.09 3.03 3.034 4.623 0 .052 0 .106-.005.16a1.006 1.006 0 0 1-.095.004c-.378-.005-.66-.168-1.012-.58-.34-.405-.664-1.03-.984-1.72-.663-1.366-1.223-3.014-2.6-3.788l-.123-.064-.137-.007a51.182 51.182 0 0 0-2.4-.05c-2.293 0-4.66.11-6.915.11-1.8 0-3.527-.072-5.08-.323.382-2.28 1.363-3.73 2.583-5.033 1.257-1.338 2.797-2.473 4.086-4.045h4.888zm.35-1.25h-5.844l-.188.24c-1.177 1.524-2.767 2.684-4.2 4.197-1.432 1.506-2.677 3.42-3 6.33l-.064.572.565.11c1.83.362 3.84.452 5.905.453 2.295 0 4.662-.113 6.916-.113.746 0 1.478.013 2.193.044.507.325 1.003 1.13 1.446 2.09.492 1.03.937 2.185 1.642 3.046.463.57 1.133 1.036 1.975 1.03.27 0 .552-.045.838-.137l-.19-.596.19.597.34-.108.08-.35c.064-.28.094-.553.094-.82-.05-2.144-1.766-3.594-2.813-4.78l.164.002c.193-.002.413-.004.672-.102.26-.085.56-.36.643-.694l.032-.115-.012-.118c-.268-2.92-1.548-4.76-2.96-6.213-1.413-1.46-2.916-2.6-3.888-4.258l-.18-.307h-.36z" />
        </g>
    </g>
</svg>