<?xml version="1.0" encoding="UTF-8" standalone="no"?>
<svg
   xmlns:dc="http://purl.org/dc/elements/1.1/"
   xmlns:cc="http://creativecommons.org/ns#"
   xmlns:rdf="http://www.w3.org/1999/02/22-rdf-syntax-ns#"
   xmlns:svg="http://www.w3.org/2000/svg"
   xmlns="http://www.w3.org/2000/svg"
   xmlns:sodipodi="http://sodipodi.sourceforge.net/DTD/sodipodi-0.dtd"
   xmlns:inkscape="http://www.inkscape.org/namespaces/inkscape"
   viewBox="0 0 23.75 23.75"
   height="23.75"
   width="23.75"
   id="svg3424"
   version="1.1"
   inkscape:version="0.91 r13725"
   sodipodi:docname="logo_joy-a-inscape.svg">
  <metadata
     id="metadata3452">
    <rdf:RDF>
      <cc:Work
         rdf:about="">
        <dc:format>image/svg+xml</dc:format>
        <dc:type
           rdf:resource="http://purl.org/dc/dcmitype/StillImage" />
        <dc:title />
      </cc:Work>
    </rdf:RDF>
  </metadata>
  <sodipodi:namedview
     pagecolor="#ffffff"
     bordercolor="#666666"
     borderopacity="1"
     objecttolerance="10"
     gridtolerance="10"
     guidetolerance="10"
     inkscape:pageopacity="0"
     inkscape:pageshadow="2"
     inkscape:window-width="1170"
     inkscape:window-height="669"
     id="namedview3450"
     showgrid="false"
     inkscape:zoom="14.439866"
     inkscape:cx="10.796872"
     inkscape:cy="13.000669"
     inkscape:window-x="0"
     inkscape:window-y="0"
     inkscape:window-maximized="0"
     inkscape:current-layer="g3436" />
  <defs
     id="defs3426">
    <clipPath
       id="a">
      <path
         d="M0 0h14400v14400H0V0z"
         id="path3429" />
    </clipPath>
    <clipPath
       id="c">
      <path
         d="M0 14400h14400V0H0v14400z"
         id="path3432" />
    </clipPath>
  </defs>
  <g
     clip-path="url(#a)"
     transform="matrix(1.25 0 0 -1.25 -8988.875 9009.95)"
     id="g3434">
    <g
       clip-path="url(#c)"
       id="g3436">
      <g
         id="g4198"
         transform="translate(-10.19895,-0.03939601)">
        <path
           inkscape:connector-curvature="0"
           id="path3440"
           d="m 7206.7938,7189.2852 c -0.4824,0.1282 -0.9649,0.2565 -1.4473,0.3847 0.4019,1.404 1.0195,2.8001 1.6905,4.1232 0.9716,1.9078 1.7698,4.1613 1.037,6.2873 -0.7676,2.0118 -2.8674,2.9926 -4.1124,4.6515 -0.539,0.7282 -1.0226,1.4958 -1.5357,2.2423 1.3274,-0.4621 2.7762,-0.7238 3.858,-1.6918 1.1731,-0.8941 2.2389,-2.1977 3.8076,-2.3207 1.27,0.05 2.3971,0.7582 3.498,1.3258 1.8719,1.0728 3.6587,2.2921 5.5825,3.2742 0,-0.5573 0,-1.1146 0,-1.6719 -2.4766,-1.5672 -4.7575,-3.5083 -7.5102,-4.5907 -0.6414,-0.3508 -1.8197,-0.045 -2.1821,-0.1539 0.7416,-1.0776 0.8448,-2.4312 0.6804,-3.6941 -0.318,-2.874 -2.1618,-5.208 -3.2422,-7.8068 -0.044,-0.1167 -0.092,-0.2501 -0.1241,-0.3591 z" />
        <path
           inkscape:connector-curvature="0"
           id="path3444"
           d="m 7210.5613,7203.2656 c -0.6664,-0.048 -1.3043,0.3634 -1.618,0.9387 -0.244,0.4177 -0.3435,0.9034 -0.3534,1.3829 -0.02,0.3319 -0.023,0.6689 0.038,0.9968 0.034,0.1612 0.025,0.3562 0.157,0.4926 0.094,0.1373 0.1807,0.2844 0.3263,0.3747 0.3352,0.2625 0.8223,0.3589 1.2064,0.1448 0.4239,-0.2296 0.6835,-0.6694 0.8573,-1.1041 0.1275,-0.3224 0.1759,-0.6686 0.1885,-1.013 0.067,-0.6871 -0.01,-1.428 -0.4229,-2.0032 -0.075,-0.1405 -0.2532,-0.1447 -0.3788,-0.2102 z m -0.5996,1.7207 c 0.037,0.456 -0.034,0.933 -0.2754,1.3282 0.036,-0.2713 0.045,-0.5473 0.1117,-0.8145 0.041,-0.1733 0.082,-0.3582 0.1637,-0.5137 z"/>
        <path
           sodipodi:nodetypes="cccccccccccccccc"
           inkscape:connector-curvature="0"
           id="path3448"
           d="m 7209.3817,7191.0078 c -0.444,0.2168 -0.8881,0.4336 -1.3321,0.6504 0.3356,0.7091 0.9796,1.3638 1.7457,1.7015 1.0515,0.5875 2.3476,0.8711 3.1294,1.845 0.4106,0.3591 0.1597,1.0901 -0.4392,0.5757 -0.8682,-0.4332 -1.695,-1.21 -2.7381,-1.0322 -0.3051,0.087 -0.3797,0.5685 -0.5332,0.836 -0.4782,1.6012 0.3338,3.2276 1.1405,4.574 1.1691,1.8035 2.6017,3.4768 4.3496,4.7406 0.5064,0.1389 1.2633,1.0459 1.5598,0.5998 0.1801,-0.3662 0.3603,-0.7325 0.5404,-1.0987 -1.9009,-1.5352 -3.6863,-3.2742 -5.0192,-5.3347 -0.328,-0.5733 -0.878,-1.6458 -0.7447,-2.0634 0.9785,0.5595 2.3358,0.9803 3.293,0.1572 0.9173,-0.7009 1.1167,-2.1616 0.2812,-3.0072 -1.3956,-1.549 -3.6374,-1.896 -5.2331,-3.144 z" />
      </g>
    </g>
  </g>
</svg>
