<?xml version="1.0" encoding="UTF-8" standalone="no"?>
<svg
   xmlns:dc="http://purl.org/dc/elements/1.1/"
   xmlns:cc="http://creativecommons.org/ns#"
   xmlns:rdf="http://www.w3.org/1999/02/22-rdf-syntax-ns#"
   xmlns:svg="http://www.w3.org/2000/svg"
   xmlns="http://www.w3.org/2000/svg"
   xmlns:sodipodi="http://sodipodi.sourceforge.net/DTD/sodipodi-0.dtd"
   xmlns:inkscape="http://www.inkscape.org/namespaces/inkscape"
   viewBox="0 0 36.25 23.75"
   height="23.75"
   width="36.25"
   xml:space="preserve"
   version="1.1"
   id="svg2"
   inkscape:version="0.91 r13725"
   sodipodi:docname="logo_yoga.svg"><sodipodi:namedview
     pagecolor="#ffffff"
     bordercolor="#666666"
     borderopacity="1"
     objecttolerance="10"
     gridtolerance="10"
     guidetolerance="10"
     inkscape:pageopacity="0"
     inkscape:pageshadow="2"
     inkscape:window-width="1280"
     inkscape:window-height="687"
     id="namedview4197"
     showgrid="false"
     inkscape:zoom="20.421053"
     inkscape:cx="18.125"
     inkscape:cy="11.875"
     inkscape:window-x="0"
     inkscape:window-y="1"
     inkscape:window-maximized="1"
     inkscape:current-layer="svg2" /><metadata
     id="metadata8"><rdf:RDF><cc:Work
         rdf:about=""><dc:format>image/svg+xml</dc:format><dc:type
           rdf:resource="http://purl.org/dc/dcmitype/StillImage" /><dc:title></dc:title></cc:Work></rdf:RDF></metadata><defs
     id="defs6"><clipPath
       id="clipPath12"
       clipPathUnits="userSpaceOnUse"><path
         id="path14"
         d="m 0,0 14400,0 0,14400 L 0,14400 0,0 Z" /></clipPath><clipPath
       id="clipPath20"
       clipPathUnits="userSpaceOnUse"><path
         id="path22"
         d="m 0,14400 14400,0 L 14400,0 0,0 0,14400 Z" /></clipPath></defs><g
     clip-path="url(#clipPath12)"
     transform="matrix(1.25,0,0,-1.25,-8982.1125,9013.7)"
     id="g10"><g
       id="g16"><g
         clip-path="url(#clipPath20)"
         id="g18"><g
           transform="translate(7209.4102,7199.8311)"
           id="g24"><path
             id="path26"
             style="fill:#000000;fill-opacity:1;fill-rule:evenodd;stroke:none"
             d="m 0,0 c -1.653,-2.659 -4.398,-4.226 -8.33,-4.607 1.019,-1.665 3.535,-2.056 5.671,-1.773 2.989,0.396 5.478,2.85 6.381,4.962 C 2.748,-0.679 1.447,-0.266 0,0 m -7.443,-3.367 c 2.795,0.335 4.85,1.411 6.025,3.367 -2.807,-0.324 -4.676,-1.585 -6.025,-3.367 m -3.723,0 c -0.778,1.585 -3.128,3.131 -5.848,3.367 1.126,-1.945 3.165,-2.979 5.848,-3.367 M -18.608,0 c -1.295,-0.419 -2.85,-0.577 -3.545,-1.595 1.061,-2.015 3.461,-4.437 6.558,-4.785 2.03,-0.228 4.518,0.108 5.493,1.773 -4.04,0.331 -6.707,2.036 -8.506,4.607 m 8.861,-2.658 c -0.157,2.559 -0.884,4.551 -2.481,5.671 0.157,-2.56 0.883,-4.551 2.481,-5.671 m 1.064,0 c 1.518,1.08 2.6,3.541 2.303,5.848 -1.219,-1.499 -2.302,-3.132 -2.303,-5.848 m 3.366,6.734 c 0.031,-1.685 0.073,-3.381 -0.533,-4.43 1.494,0.753 3.053,1.437 5.318,1.417 0.481,1.351 1.071,2.592 0.886,4.608 -2.565,0.143 -4.22,-0.624 -5.671,-1.595 M -17.899,1.063 c 2.119,-0.066 3.853,-0.518 5.139,-1.417 -0.187,1.464 -0.682,2.965 -0.354,4.43 -1.493,0.93 -3.094,1.75 -5.672,1.595 -0.142,-1.974 0.262,-3.401 0.887,-4.608 m 8.506,8.153 c -1.205,-1.157 -2.11,-2.616 -2.659,-4.431 0.963,-1.401 2.203,-2.524 2.837,-4.254 0.683,1.562 1.443,3.047 2.835,3.9 -0.499,2.101 -1.312,3.887 -3.013,4.785 M -5.494,5.317 C -3.82,6.233 -1.355,7.136 1.24,6.557 1.653,4.621 1.24,2.422 0.531,1.063 2.139,0.544 3.703,-0.018 4.962,-0.886 3.987,-6.354 -4.033,-9.377 -9.215,-5.849 c -5.183,-3.528 -13.204,-0.505 -14.179,4.963 1.35,0.718 2.499,1.636 4.431,1.772 -0.691,1.332 -1.208,3.734 -0.709,5.671 2.515,0.588 4.979,-0.31 6.558,-1.24 0.902,2.11 2.028,3.997 3.721,5.317 2.019,-1.053 3.12,-3.024 3.899,-5.317" /></g></g></g></g></svg>