<svg xmlns="http://www.w3.org/2000/svg" viewBox="0 0 23.75 23.75" height="23.75" width="23.75">
    <defs id="defs6">
        <clipPath id="clipPath12" clipPathUnits="userSpaceOnUse">
            <path id="path14" d="m 0,0 14400,0 0,14400 L 0,14400 0,0 Z" />
        </clipPath>
        <clipPath id="clipPath22" clipPathUnits="userSpaceOnUse">
            <path id="path24" d="m 0,14400 14400,0 L 14400,0 0,0 0,14400 Z" />
        </clipPath>
        <clipPath id="clipPath30" clipPathUnits="userSpaceOnUse">
            <path id="path32" d="m 7192,7208.46 18,0 0,-18 -18,0 0,18 z" />
        </clipPath>
    </defs>
    <g id="g28" transform="matrix(1.25,0,0,-1.25,-8989.375,9011.2625)" />
    <g clip-path="url(#clipPath30)" id="g36" transform="matrix(1.25,0,0,-1.25,-8989.375,9011.2625)">
        <g transform="translate(7201.8936,7194.9912)" id="g38">
            <path d="m -0.911,1.77 c 0.966,0 1.75,-0.785 1.75,-1.75 0,-0.967 -0.784,-1.75 -1.75,-1.75 -0.967,0 -1.75,0.783 -1.75,1.75 0,0.965 0.783,1.75 1.75,1.75" id="path40" sodipodi:nodetypes="csssc" />
        </g>
        <g transform="translate(7202.8037,7203.957)" id="g46">
            <path d="M 0,0 C 0,0.967 -0.784,1.75 -1.75,1.75 -2.716,1.75 -3.5,0.967 -3.5,0 c 0,-0.966 0.784,-1.75 1.75,-1.75 C -0.784,-1.75 0,-0.966 0,0 m 4.56,1.871 c 1.701,-1.7 2.636,-3.96 2.636,-6.364 0,-2.403 -0.935,-4.664 -2.636,-6.363 -1.7,-1.701 -3.959,-2.636 -6.364,-2.636 -2.404,0 -4.664,0.935 -6.363,2.636 -1.701,1.699 -2.637,3.96 -2.637,6.363 0,2.404 0.936,4.664 2.637,6.364 1.699,1.7 3.959,2.636 6.363,2.636 2.405,0 4.664,-0.936 6.364,-2.636 M -2.782,4.347 C -4.787,4.128 -6.645,3.242 -8.091,1.795 c -1.68,-1.68 -2.605,-3.912 -2.605,-6.288 0,-2.375 0.925,-4.608 2.605,-6.287 1.678,-1.681 3.912,-2.606 6.287,-2.606 0.326,0 0.651,0.019 0.971,0.053 2.003,0.444 3.501,2.23 3.501,4.367 0,2.471 -2.003,4.473 -4.473,4.473 l 0,0 c -2.47,0 -4.473,2.003 -4.473,4.473 0,2.136 1.495,3.921 3.496,4.367" />
        </g>
    </g>
</svg>