<?xml version="1.0" encoding="UTF-8" standalone="no"?>
<svg
   xmlns:dc="http://purl.org/dc/elements/1.1/"
   xmlns:cc="http://creativecommons.org/ns#"
   xmlns:rdf="http://www.w3.org/1999/02/22-rdf-syntax-ns#"
   xmlns:svg="http://www.w3.org/2000/svg"
   xmlns="http://www.w3.org/2000/svg"
   viewBox="0 0 23.75 23.75"
   height="23.75"
   width="23.75"
   xml:space="preserve"
   version="1.1"
   id="svg2"><metadata
     id="metadata8"><rdf:RDF><cc:Work
         rdf:about=""><dc:format>image/svg+xml</dc:format><dc:type
           rdf:resource="http://purl.org/dc/dcmitype/StillImage" /></cc:Work></rdf:RDF></metadata><defs
     id="defs6"><clipPath
       id="clipPath12"
       clipPathUnits="userSpaceOnUse"><path
         id="path14"
         d="m 0,0 14400,0 0,14400 L 0,14400 0,0 Z" /></clipPath><clipPath
       id="clipPath20"
       clipPathUnits="userSpaceOnUse"><path
         id="path22"
         d="m 0,14400 14400,0 L 14400,0 0,0 0,14400 Z" /></clipPath></defs><g
     clip-path="url(#clipPath12)"
     transform="matrix(1.25,0,0,-1.25,-8988.875,9009.95)"
     id="g10"><g
       id="g16"><g
         clip-path="url(#clipPath20)"
         id="g18"><g
           transform="translate(7200.0171,7207.3735)"
           id="g24"><path
             id="path26"
             style="fill:#000000;fill-opacity:1;fill-rule:evenodd;stroke:none"
             d="M 0,0 C 2.522,0.779 2.593,-3.69 0.441,-3.678 -1.413,-3.667 -1.691,-0.522 0,0" /></g><g
           transform="translate(7199.0225,7197.5723)"
           id="g28"><path
             id="path30"
             style="fill:#000000;fill-opacity:1;fill-rule:evenodd;stroke:none"
             d="M 0,0 C 0.967,0.823 2.215,1.58 3.085,0.823 3.144,1.103 3.3,1.48 3.469,1.878 4.853,0.254 4.301,-1.933 5.703,-3.146 6.696,-4.005 8.307,-3.48 9.528,-4.175 10.132,-4.519 10.232,-5.599 11,-5.499 11.179,-2.802 7.635,-3.566 6.291,-1.527 5.683,-0.603 5.279,1.21 5.114,2.445 5.052,2.922 5.231,3.576 4.968,4.063 4.055,5.749 0.346,5.494 -1.507,4.358 -2.371,2.033 -1.893,-0.34 -3.272,-1.968 c -1.3,-1.536 -4.902,-0.948 -4.561,-3.678 0.922,0.463 0.968,1.241 1.913,1.618 1.037,0.413 2.365,0.148 3.237,0.736 1.572,1.06 0.997,3.787 2.459,5.075" /></g><g
           transform="translate(7201.1719,7193.1777)"
           id="g32"><path
             id="path34"
             style="fill:#000000;fill-opacity:1;fill-rule:nonzero;stroke:none"
             d="M 0,0 0.196,0.193 C 0.791,0.749 1.732,0.742 2.425,0.921 1.982,2.01 0.925,3.288 0.91,4.751 0.909,5.119 0.982,5.498 1.15,5.875 0.831,5.903 0.512,5.923 0.191,5.928 0.112,5.93 0.031,5.93 -0.049,5.93 -0.823,5.93 -1.529,5.899 -2.286,5.794 -2.289,5.708 -2.333,5.674 -2.326,5.521 -2.278,5.23 -2.322,4.94 -2.322,4.663 -2.325,2.923 -3.17,1.489 -3.708,0.349 L -3.769,0.221 -3.909,0.204 c -2.257,-0.247 -4.517,-0.392 -5.111,-1.962 0.73,-1.471 1.575,-1.899 2.615,-1.912 2.309,-0.028 5.535,2.485 8.829,2.504 0.082,0 0.165,-0.002 0.248,-0.005 -0.196,0.149 -0.471,0.25 -0.802,0.341 -0.546,0.156 -1.189,0.25 -1.661,0.648 L 0,0 Z" /></g><g
           transform="translate(7208.001,7189.8145)"
           id="g36"><path
             id="path38"
             style="fill:#000000;fill-opacity:1;fill-rule:nonzero;stroke:none"
             d="m 0,0 c 0.67,0.422 0.887,0.827 0.888,1.189 0.011,0.503 -0.479,1.105 -1.289,1.559 -0.803,0.454 -1.883,0.756 -2.912,0.754 -0.315,0 -0.625,-0.027 -0.921,-0.087 0.797,-0.277 1.382,-0.849 1.5,-1.812 L -2.697,1.317 -2.984,1.313 C -4.42,1.298 -5.962,1.216 -7.185,0.814 -5.143,0.798 -3.013,-0.362 -1.356,-0.35 -0.854,-0.349 -0.404,-0.25 0,0" /></g></g></g></g></svg>