<?xml version="1.0" encoding="UTF-8" standalone="no"?>
<svg
   xmlns:dc="http://purl.org/dc/elements/1.1/"
   xmlns:cc="http://creativecommons.org/ns#"
   xmlns:rdf="http://www.w3.org/1999/02/22-rdf-syntax-ns#"
   xmlns:svg="http://www.w3.org/2000/svg"
   xmlns="http://www.w3.org/2000/svg"
   viewBox="0 0 23.75 23.75"
   height="23.75"
   width="23.75"
   xml:space="preserve"
   version="1.1"
   id="svg2"><metadata
     id="metadata8"><rdf:RDF><cc:Work
         rdf:about=""><dc:format>image/svg+xml</dc:format><dc:type
           rdf:resource="http://purl.org/dc/dcmitype/StillImage" /></cc:Work></rdf:RDF></metadata><defs
     id="defs6"><clipPath
       id="clipPath12"
       clipPathUnits="userSpaceOnUse"><path
         id="path14"
         d="m 0,0 14400,0 0,14400 L 0,14400 0,0 Z" /></clipPath><clipPath
       id="clipPath20"
       clipPathUnits="userSpaceOnUse"><path
         id="path22"
         d="m 0,14400 14400,0 L 14400,0 0,0 0,14400 Z" /></clipPath><clipPath
       id="clipPath60"
       clipPathUnits="userSpaceOnUse"><path
         id="path62"
         d="m 0,14400 14400,0 L 14400,0 0,0 0,14400 Z" /></clipPath></defs><g
     clip-path="url(#clipPath12)"
     transform="matrix(1.25,0,0,-1.25,-8988.875,9009.95)"
     id="g10"><g
       id="g16"><g
         clip-path="url(#clipPath20)"
         id="g18"><g
           transform="translate(7201.2861,7179.6699)"
           id="g24"><path
             id="path26"
             style="fill:#ffffff;fill-opacity:1;fill-rule:evenodd;stroke:none"
             d="M 0,0 C 0.578,-0.912 0.518,-2.008 -0.136,-2.443 -0.79,-2.879 -1.79,-2.492 -2.368,-1.579 -2.948,-0.666 -2.887,0.43 -2.232,0.865 -1.578,1.302 -0.58,0.914 0,0" /></g><g
           transform="translate(7201.2861,7179.6699)"
           id="g28"><path
             id="path30"
             style="fill:none;stroke:#231f20;stroke-width:1.5;stroke-linecap:butt;stroke-linejoin:miter;stroke-miterlimit:4;stroke-dasharray:none;stroke-opacity:1"
             d="M 0,0 C 0.578,-0.912 0.518,-2.008 -0.136,-2.443 -0.79,-2.879 -1.79,-2.492 -2.368,-1.579 -2.948,-0.666 -2.887,0.43 -2.232,0.865 -1.578,1.302 -0.58,0.914 0,0 Z" /></g><g
           transform="translate(7194.4658,7165.5703)"
           id="g32"><path
             id="path34"
             style="fill:#ffffff;fill-opacity:1;fill-rule:evenodd;stroke:#231f20;stroke-width:2.0150001;stroke-linecap:round;stroke-linejoin:miter;stroke-miterlimit:4;stroke-dasharray:none;stroke-opacity:1"
             d="m 0,0 c 0,0 1.822,-0.648 5.646,1.103 3.827,1.751 4.111,10.206 4.552,11.655 0.7,2.293 2.734,1.644 2.734,1.644" /></g><g
           transform="translate(7194.5527,7177.6816)"
           id="g36"><path
             id="path38"
             style="fill:#ffffff;fill-opacity:1;fill-rule:evenodd;stroke:#231f20;stroke-width:1.95599997;stroke-linecap:round;stroke-linejoin:miter;stroke-miterlimit:4;stroke-dasharray:none;stroke-opacity:1"
             d="m 0,0 c 0,0 -0.717,-1.48 2.229,-2.354 2.943,-0.876 7.161,-2.423 7.558,-6.191 0.398,-3.768 1.274,-5.249 2.308,-5.921" /></g><g
           transform="translate(7168.6084,7204.958)"
           id="g40"><path
             id="path42"
             style="fill:#ffffff;fill-opacity:1;fill-rule:evenodd;stroke:none"
             d="m 0,0 c 0.464,-0.731 0.415,-1.609 -0.108,-1.958 -0.525,-0.35 -1.327,-0.039 -1.789,0.692 -0.465,0.733 -0.416,1.611 0.108,1.959 C -1.265,1.043 -0.465,0.732 0,0" /></g><g
           transform="translate(7168.6084,7204.958)"
           id="g44"><path
             id="path46"
             style="fill:none;stroke:#231f20;stroke-width:0.75;stroke-linecap:round;stroke-linejoin:miter;stroke-miterlimit:4;stroke-dasharray:none;stroke-opacity:1"
             d="m 0,0 c 0.464,-0.731 0.415,-1.609 -0.108,-1.958 -0.525,-0.35 -1.327,-0.039 -1.789,0.692 -0.465,0.733 -0.416,1.611 0.108,1.959 C -1.265,1.043 -0.465,0.732 0,0 Z" /></g><g
           transform="translate(7163.7422,7192.1895)"
           id="g48"><path
             id="path50"
             style="fill:#ffffff;fill-opacity:1;fill-rule:evenodd;stroke:#231f20;stroke-width:0.75;stroke-linecap:round;stroke-linejoin:miter;stroke-miterlimit:4;stroke-dasharray:none;stroke-opacity:1"
             d="m 0,0 c 0,0 1.352,-0.697 4.189,1.186 2.839,1.882 3.051,10.972 3.378,12.53 0.52,2.464 2.029,1.766 2.029,1.766" /></g><g
           transform="translate(7163.8105,7205.2104)"
           id="g52"><path
             id="path54"
             style="fill:#ffffff;fill-opacity:1;fill-rule:evenodd;stroke:#231f20;stroke-width:0.75;stroke-linecap:round;stroke-linejoin:miter;stroke-miterlimit:4;stroke-dasharray:none;stroke-opacity:1"
             d="m 0,0 c 0,0 -0.564,-1.591 1.755,-2.532 2.319,-0.941 5.641,-2.605 5.954,-6.655 0.313,-4.051 1.004,-5.643 1.818,-6.365" /></g></g></g><g
       id="g56"><g
         clip-path="url(#clipPath60)"
         id="g58"><g
           transform="translate(7208.6738,7206.3062)"
           id="g64"><path
             id="path66"
             style="fill:#000000;fill-opacity:1;fill-rule:evenodd;stroke:none"
             d="m 0,0 c -1.358,-0.855 -4.573,-3.348 -6.881,-4.249 -1.55,-0.605 -3.226,0.187 -4.35,1.214 0.737,-1.088 2.007,-2.18 2.225,-3.946 0.488,-3.95 -2.441,-6.977 -3.339,-9.815 0.684,3.166 3.574,5.953 2.935,9.916 -0.48,2.973 -3.277,3.975 -4.756,6.172 2.104,-0.678 3.943,-4.117 6.881,-3.237 C -4.798,-3.201 -2.055,-1.109 0,0" /></g><g
           transform="translate(7208.6738,7206.3062)"
           id="g68"><path
             id="path70"
             style="fill:none;stroke:#000000;stroke-width:1.5;stroke-linecap:butt;stroke-linejoin:miter;stroke-miterlimit:4;stroke-dasharray:none;stroke-opacity:1"
             d="m 0,0 c -1.358,-0.855 -4.573,-3.348 -6.881,-4.249 -1.55,-0.605 -3.226,0.187 -4.35,1.214 0.737,-1.088 2.007,-2.18 2.225,-3.946 0.488,-3.95 -2.441,-6.977 -3.339,-9.815 0.684,3.166 3.574,5.953 2.935,9.916 -0.48,2.973 -3.277,3.975 -4.756,6.172 2.104,-0.678 3.943,-4.117 6.881,-3.237 C -4.798,-3.201 -2.055,-1.109 0,0 Z" /></g><g
           transform="translate(7200.7813,7203.7651)"
           id="g72"><path
             id="path74"
             style="fill:#000000;fill-opacity:1;fill-rule:evenodd;stroke:none"
             d="M 0,0 C -1.396,0.003 -1.546,1.623 -1.417,2.833 -1.166,1.869 -1.328,0.493 -0.202,0.404 0.247,1.129 -0.081,3.07 -0.81,3.238 -1.258,3.341 -1.266,2.724 -1.438,2.931 -0.15,4.823 0.939,1.252 0,0" /></g><g
           transform="translate(7200.7813,7203.7651)"
           id="g76"><path
             id="path78"
             style="fill:none;stroke:#000000;stroke-width:1;stroke-linecap:butt;stroke-linejoin:miter;stroke-miterlimit:4;stroke-dasharray:none;stroke-opacity:1"
             d="M 0,0 C -1.396,0.003 -1.546,1.623 -1.417,2.833 -1.166,1.869 -1.328,0.493 -0.202,0.404 0.247,1.129 -0.081,3.07 -0.81,3.238 -1.258,3.341 -1.266,2.724 -1.438,2.931 -0.15,4.823 0.939,1.252 0,0 Z" /></g><g
           transform="translate(7200.3301,7195.4844)"
           id="g80"><path
             id="path82"
             style="fill:#000000;fill-opacity:1;fill-rule:evenodd;stroke:none"
             d="M 0,0 C -1.552,2.762 4.361,8.993 6.274,9.516 4.538,8.205 -0.698,3.38 0,0.303 0.89,0.387 2.977,2.34 4.047,0.809 5.697,-1.549 -0.4,-2.736 -1.315,-4.047 -0.771,-2.283 4.089,-2.094 3.643,0.404 3.268,2.506 1.056,-0.049 0,0" /></g><g
           transform="translate(7200.3301,7195.4844)"
           id="g84"><path
             id="path86"
             style="fill:none;stroke:#000000;stroke-width:1.5;stroke-linecap:butt;stroke-linejoin:miter;stroke-miterlimit:4;stroke-dasharray:none;stroke-opacity:1"
             d="M 0,0 C -1.552,2.762 4.361,8.993 6.274,9.516 4.538,8.205 -0.698,3.38 0,0.303 0.89,0.387 2.977,2.34 4.047,0.809 5.697,-1.549 -0.4,-2.736 -1.315,-4.047 -0.771,-2.283 4.089,-2.094 3.643,0.404 3.268,2.506 1.056,-0.049 0,0 Z" /></g><g
           transform="translate(7154.6304,7204.064)"
           id="g88"><path
             id="path90"
             style="fill:#ffffff;fill-opacity:1;fill-rule:evenodd;stroke:none"
             d="M 0,0 C 0.378,-0.594 0.337,-1.307 -0.088,-1.591 -0.514,-1.876 -1.165,-1.624 -1.543,-1.028 -1.92,-0.432 -1.88,0.281 -1.455,0.564 -1.028,0.849 -0.377,0.596 0,0" /></g><g
           transform="translate(7154.6304,7204.064)"
           id="g92"><path
             id="path94"
             style="fill:none;stroke:#231f20;stroke-width:0.31099999;stroke-linecap:butt;stroke-linejoin:miter;stroke-miterlimit:4;stroke-dasharray:none;stroke-opacity:1"
             d="M 0,0 C 0.378,-0.594 0.337,-1.307 -0.088,-1.591 -0.514,-1.876 -1.165,-1.624 -1.543,-1.028 -1.92,-0.432 -1.88,0.281 -1.455,0.564 -1.028,0.849 -0.377,0.596 0,0 Z" /></g><g
           transform="translate(7150.6748,7193.6846)"
           id="g96"><path
             id="path98"
             style="fill:#ffffff;fill-opacity:1;fill-rule:evenodd;stroke:#231f20;stroke-width:0.31099999;stroke-linecap:butt;stroke-linejoin:miter;stroke-miterlimit:4;stroke-dasharray:none;stroke-opacity:1"
             d="m 0,0 c 0,0 1.098,-0.568 3.406,0.962 2.308,1.532 2.481,8.922 2.746,10.187 0.422,2.004 1.649,1.436 1.649,1.436" /></g><g
           transform="translate(7150.73,7204.269)"
           id="g100"><path
             id="path102"
             style="fill:#ffffff;fill-opacity:1;fill-rule:evenodd;stroke:#231f20;stroke-width:0.31099999;stroke-linecap:butt;stroke-linejoin:miter;stroke-miterlimit:4;stroke-dasharray:none;stroke-opacity:1"
             d="m 0,0 c 0,0 -0.459,-1.293 1.427,-2.058 1.886,-0.765 4.587,-2.117 4.841,-5.411 0.255,-3.292 0.815,-4.585 1.478,-5.175" /></g></g></g></g></svg>