<svg xmlns="http://www.w3.org/2000/svg" viewBox="0 0 25 23.75" height="23.75" width="25">
    <defs>
        <clipPath id="a">
            <path d="M0 0h14400v14400H0V0z" />
        </clipPath>
        <clipPath id="b">
            <path d="M0 14400h14400V0H0v14400z" />
        </clipPath>
    </defs>
    <g clip-path="url(#a)" transform="matrix(1.25 0 0 -1.25 -8988.737 9010.575)">
        <g clip-path="url(#b)">
            <path d="M7200.16 7207.28c-.01-.988-.743-1.25-1.12-1.87 1.505-.11 3.188.883 4.607.997.397.033 1.483.267 1.62-.498-1.675-.984-4.06-1.256-6.726-1.246-1.38-1.284-2.61-3.353-4.73-3.488 1.69 1.763 4.7 3.892 4.11 6.726.857.254 1.552-.335 2.24-.623" fill-rule="evenodd" />
            <path d="M7200.16 7207.28c-.01-.988-.743-1.25-1.12-1.87 1.505-.11 3.188.883 4.607.997.397.033 1.483.267 1.62-.498-1.675-.984-4.06-1.256-6.726-1.246-1.38-1.284-2.61-3.353-4.73-3.488 1.69 1.763 4.7 3.892 4.11 6.726.857.254 1.552-.335 2.24-.623z" fill="none" stroke="#000" stroke-width=".5" />
            <path d="M7203.895 7203.544c-1.377-.776-4.156-1.356-6.102-.748.177.63.894.386 1.496.498 1.45.273 3.575 1.418 4.605.25" fill-rule="evenodd" />
            <path d="M7203.895 7203.544c-1.377-.776-4.156-1.356-6.102-.748.177.63.894.386 1.496.498 1.45.273 3.575 1.418 4.605.25z" fill="none" stroke="#000" stroke-width=".5" />
            <path d="M7205.89 7201.924c-2.678-2.945-1.59-10.03 2.863-10.21.605.897.29 2.112.997 2.738.056-1.644.8-3.13.746-4.484-6.04-.18-7.814 5.072-6.725 11.208-2.685.077-6.034-1.957-8.218-.373 2.872.575 6.425.467 8.593 1.744.75-.04 1.268-.31 1.744-.623" fill-rule="evenodd" />
            <path d="M7205.89 7201.924c-2.678-2.945-1.59-10.03 2.863-10.21.605.897.29 2.112.997 2.738.056-1.644.8-3.13.746-4.484-6.04-.18-7.814 5.072-6.725 11.208-2.685.077-6.034-1.957-8.218-.373 2.872.575 6.425.467 8.593 1.744.75-.04 1.268-.31 1.744-.623z" fill="none" stroke="#000" stroke-width=".5" />
            <path d="M7199.164 7199.56c-.03-1.052-.26-1.9-.25-2.99 1.23-.025 3.007 1.052 3.736 0-.62-.914-2.548-.524-3.736-.872-.082-1.827.21-4.03-.25-5.48-1.508.646-.486 2.666-.62 4.36-1.648-1.346-3.38-3.26-5.98-3.24 1.77 1.136 3.485 2.33 4.857 3.863-1.207.22-3.526-1.145-3.983.623 1.32.083 3.176.394 4.856.498.762 1.02-.186 2.897-.124 3.613.33.144 1.16-.12 1.494-.374" fill-rule="evenodd" />
            <path d="M7199.164 7199.56c-.03-1.052-.26-1.9-.25-2.99 1.23-.025 3.007 1.052 3.736 0-.62-.914-2.548-.524-3.736-.872-.082-1.827.21-4.03-.25-5.48-1.508.646-.486 2.666-.62 4.36-1.648-1.346-3.38-3.26-5.98-3.24 1.77 1.136 3.485 2.33 4.857 3.863-1.207.22-3.526-1.145-3.983.623 1.32.083 3.176.394 4.856.498.762 1.02-.186 2.897-.124 3.613.33.144 1.16-.12 1.494-.374z" fill="none" stroke="#000" stroke-width=".5" />
            <path d="M7202.4 7198.81c-.683-.728-1.78-1.04-2.863-1.37.576 1.024 1.765 3.01 2.864 1.37" fill-rule="evenodd" />
            <path d="M7202.4 7198.81c-.683-.728-1.78-1.04-2.863-1.37.576 1.024 1.765 3.01 2.864 1.37z" fill="none" stroke="#000" stroke-width=".5" />
            <path d="M7195.054 7198.563c1.42.292 2.375-1.053 1.37-1.744-.685.35-1.11.965-1.37 1.742" fill-rule="evenodd" />
            <path d="M7195.054 7198.563c1.42.292 2.375-1.053 1.37-1.744-.685.35-1.11.965-1.37 1.742z" fill="none" stroke="#000" stroke-width=".5" />
            <path d="M7202.4 7192.21c-1.382.444-2.145 1.508-2.863 2.616 1.228.32 3.98-.98 2.864-2.615" fill-rule="evenodd" />
            <path d="M7202.4 7192.21c-1.382.444-2.145 1.508-2.863 2.616 1.228.32 3.98-.98 2.864-2.615z" fill="none" stroke="#000" stroke-width=".5" />
        </g>
    </g>
</svg>