<svg xmlns="http://www.w3.org/2000/svg" viewBox="0 0 36.25 23.75" height="23.75" width="36.25">
    <defs>
        <clipPath id="a">
            <path d="M0 0h14400v14400H0V0z" />
        </clipPath>
        <clipPath id="b">
            <path d="M0 14400h14400V0H0v14400z" />
        </clipPath>
    </defs>
    <g clip-path="url(#a)" transform="matrix(1.25 0 0 -1.25 -8982.112 9013.7)">
        <g clip-path="url(#b)">
            <path d="M7209.41 7199.83c-1.653-2.658-4.398-4.225-8.33-4.606 1.02-1.665 3.535-2.056 5.67-1.773 2.99.397 5.48 2.85 6.382 4.963-.974.74-2.275 1.152-3.722 1.418m-7.443-3.366c2.795.335 4.85 1.41 6.025 3.367-2.807-.323-4.676-1.584-6.025-3.366m-3.723 0c-.778 1.585-3.128 3.13-5.848 3.367 1.126-1.944 3.165-2.978 5.848-3.366m-7.442 3.367c-1.295-.418-2.85-.576-3.545-1.594 1.06-2.015 3.46-4.437 6.558-4.785 2.03-.227 4.518.11 5.493 1.774-4.04.33-6.707 2.036-8.506 4.607m8.86-2.657c-.156 2.56-.883 4.55-2.48 5.67.157-2.56.883-4.55 2.48-5.67m1.065 0c1.518 1.08 2.6 3.54 2.303 5.848-1.22-1.498-2.302-3.13-2.303-5.847m3.366 6.734c.03-1.685.073-3.38-.533-4.43 1.494.753 3.053 1.437 5.318 1.417.48 1.35 1.07 2.592.886 4.608-2.565.143-4.22-.624-5.67-1.595m-12.583-3.013c2.12-.066 3.854-.518 5.14-1.417-.187 1.464-.682 2.965-.354 4.43-1.493.93-3.094 1.75-5.672 1.595-.142-1.974.262-3.4.887-4.608m8.507 8.153c-1.205-1.157-2.11-2.616-2.66-4.43.964-1.402 2.204-2.525 2.838-4.255.683 1.562 1.443 3.047 2.835 3.9-.5 2.1-1.312 3.887-3.013 4.785m3.9-3.9c1.673.917 4.138 1.82 6.733 1.24.413-1.935 0-4.134-.71-5.493 1.61-.52 3.173-1.08 4.432-1.95-.975-5.467-8.995-8.49-14.177-4.962-5.183-3.528-13.204-.505-14.18 4.963 1.35.718 2.5 1.636 4.432 1.772-.69 1.332-1.208 3.734-.71 5.67 2.516.59 4.98-.31 6.56-1.24.9 2.11 2.027 3.998 3.72 5.318 2.02-1.053 3.12-3.024 3.9-5.317" fill-rule="evenodd" />
        </g>
    </g>
</svg>