<?xml version="1.0" encoding="UTF-8" standalone="no"?>
<svg
   xmlns:dc="http://purl.org/dc/elements/1.1/"
   xmlns:cc="http://creativecommons.org/ns#"
   xmlns:rdf="http://www.w3.org/1999/02/22-rdf-syntax-ns#"
   xmlns:svg="http://www.w3.org/2000/svg"
   xmlns="http://www.w3.org/2000/svg"
   viewBox="0 0 25 23.75"
   height="23.75"
   width="25"
   xml:space="preserve"
   version="1.1"
   id="svg2"><metadata
     id="metadata8"><rdf:RDF><cc:Work
         rdf:about=""><dc:format>image/svg+xml</dc:format><dc:type
           rdf:resource="http://purl.org/dc/dcmitype/StillImage" /></cc:Work></rdf:RDF></metadata><defs
     id="defs6"><clipPath
       id="clipPath12"
       clipPathUnits="userSpaceOnUse"><path
         id="path14"
         d="m 0,0 14400,0 0,14400 L 0,14400 0,0 Z" /></clipPath><clipPath
       id="clipPath20"
       clipPathUnits="userSpaceOnUse"><path
         id="path22"
         d="m 0,14400 14400,0 L 14400,0 0,0 0,14400 Z" /></clipPath></defs><g
     clip-path="url(#clipPath12)"
     transform="matrix(1.25,0,0,-1.25,-8988.7375,9010.575)"
     id="g10"><g
       id="g16"><g
         clip-path="url(#clipPath20)"
         id="g18"><g
           transform="translate(7200.1606,7207.2793)"
           id="g24"><path
             id="path26"
             style="fill:#000000;fill-opacity:1;fill-rule:evenodd;stroke:none"
             d="m 0,0 c -0.01,-0.987 -0.744,-1.248 -1.122,-1.868 1.506,-0.111 3.189,0.882 4.608,0.996 0.397,0.033 1.483,0.267 1.62,-0.498 C 3.431,-2.353 1.047,-2.625 -1.62,-2.615 -3.002,-3.899 -4.232,-5.968 -6.352,-6.103 -4.66,-4.34 -1.65,-2.211 -2.242,0.623 -1.384,0.877 -0.689,0.288 0,0" /></g><g
           transform="translate(7200.1606,7207.2793)"
           id="g28"><path
             id="path30"
             style="fill:none;stroke:#000000;stroke-width:0.5;stroke-linecap:butt;stroke-linejoin:miter;stroke-miterlimit:4;stroke-dasharray:none;stroke-opacity:1"
             d="m 0,0 c -0.01,-0.987 -0.744,-1.248 -1.122,-1.868 1.506,-0.111 3.189,0.882 4.608,0.996 0.397,0.033 1.483,0.267 1.62,-0.498 C 3.431,-2.353 1.047,-2.625 -1.62,-2.615 -3.002,-3.899 -4.232,-5.968 -6.352,-6.103 -4.66,-4.34 -1.65,-2.211 -2.242,0.623 -1.384,0.877 -0.689,0.288 0,0 Z" /></g><g
           transform="translate(7203.8955,7203.5439)"
           id="g32"><path
             id="path34"
             style="fill:#000000;fill-opacity:1;fill-rule:evenodd;stroke:none"
             d="m 0,0 c -1.377,-0.776 -4.156,-1.356 -6.102,-0.748 0.176,0.63 0.893,0.386 1.495,0.498 C -3.155,0.023 -1.03,1.168 0,0" /></g><g
           transform="translate(7203.8955,7203.5439)"
           id="g36"><path
             id="path38"
             style="fill:none;stroke:#000000;stroke-width:0.5;stroke-linecap:butt;stroke-linejoin:miter;stroke-miterlimit:4;stroke-dasharray:none;stroke-opacity:1"
             d="m 0,0 c -1.377,-0.776 -4.156,-1.356 -6.102,-0.748 0.176,0.63 0.893,0.386 1.495,0.498 C -3.155,0.023 -1.03,1.168 0,0 Z" /></g><g
           transform="translate(7205.8887,7201.9243)"
           id="g40"><path
             id="path42"
             style="fill:#000000;fill-opacity:1;fill-rule:evenodd;stroke:none"
             d="m 0,0 c -2.677,-2.945 -1.59,-10.03 2.864,-10.211 0.605,0.898 0.291,2.113 0.997,2.739 0.056,-1.644 0.8,-3.131 0.746,-4.484 -6.039,-0.18 -7.814,5.072 -6.725,11.208 -2.686,0.077 -6.035,-1.957 -8.219,-0.373 2.872,0.575 6.425,0.467 8.593,1.744 C -0.994,0.583 -0.476,0.314 0,0" /></g><g
           transform="translate(7205.8887,7201.9243)"
           id="g44"><path
             id="path46"
             style="fill:none;stroke:#000000;stroke-width:0.5;stroke-linecap:butt;stroke-linejoin:miter;stroke-miterlimit:4;stroke-dasharray:none;stroke-opacity:1"
             d="m 0,0 c -2.677,-2.945 -1.59,-10.03 2.864,-10.211 0.605,0.898 0.291,2.113 0.997,2.739 0.056,-1.644 0.8,-3.131 0.746,-4.484 -6.039,-0.18 -7.814,5.072 -6.725,11.208 -2.686,0.077 -6.035,-1.957 -8.219,-0.373 2.872,0.575 6.425,0.467 8.593,1.744 C -0.994,0.583 -0.476,0.314 0,0 Z" /></g><g
           transform="translate(7199.1641,7199.5586)"
           id="g48"><path
             id="path50"
             style="fill:#000000;fill-opacity:1;fill-rule:evenodd;stroke:none"
             d="m 0,0 c -0.029,-1.051 -0.26,-1.899 -0.25,-2.989 1.231,-0.025 3.007,1.052 3.736,0 -0.621,-0.914 -2.548,-0.524 -3.736,-0.872 -0.082,-1.827 0.21,-4.029 -0.249,-5.479 -1.509,0.645 -0.487,2.665 -0.622,4.359 -1.647,-1.346 -3.38,-3.259 -5.978,-3.239 1.77,1.135 3.484,2.328 4.856,3.862 -1.208,0.218 -3.527,-1.146 -3.984,0.622 1.321,0.083 3.176,0.394 4.856,0.498 0.762,1.018 -0.186,2.896 -0.124,3.612 C -1.163,0.518 -0.334,0.253 0,0" /></g><g
           transform="translate(7199.1641,7199.5586)"
           id="g52"><path
             id="path54"
             style="fill:none;stroke:#000000;stroke-width:0.5;stroke-linecap:butt;stroke-linejoin:miter;stroke-miterlimit:4;stroke-dasharray:none;stroke-opacity:1"
             d="m 0,0 c -0.029,-1.051 -0.26,-1.899 -0.25,-2.989 1.231,-0.025 3.007,1.052 3.736,0 -0.621,-0.914 -2.548,-0.524 -3.736,-0.872 -0.082,-1.827 0.21,-4.029 -0.249,-5.479 -1.509,0.645 -0.487,2.665 -0.622,4.359 -1.647,-1.346 -3.38,-3.259 -5.978,-3.239 1.77,1.135 3.484,2.328 4.856,3.862 -1.208,0.218 -3.527,-1.146 -3.984,0.622 1.321,0.083 3.176,0.394 4.856,0.498 0.762,1.018 -0.186,2.896 -0.124,3.612 C -1.163,0.518 -0.334,0.253 0,0 Z" /></g><g
           transform="translate(7202.4014,7198.8105)"
           id="g56"><path
             id="path58"
             style="fill:#000000;fill-opacity:1;fill-rule:evenodd;stroke:none"
             d="M 0,0 C -0.684,-0.728 -1.781,-1.04 -2.864,-1.369 -2.288,-0.347 -1.099,1.638 0,0" /></g><g
           transform="translate(7202.4014,7198.8105)"
           id="g60"><path
             id="path62"
             style="fill:none;stroke:#000000;stroke-width:0.5;stroke-linecap:butt;stroke-linejoin:miter;stroke-miterlimit:4;stroke-dasharray:none;stroke-opacity:1"
             d="M 0,0 C -0.684,-0.728 -1.781,-1.04 -2.864,-1.369 -2.288,-0.347 -1.099,1.638 0,0 Z" /></g><g
           transform="translate(7195.0542,7198.5625)"
           id="g64"><path
             id="path66"
             style="fill:#000000;fill-opacity:1;fill-rule:evenodd;stroke:none"
             d="M 0,0 C 1.419,0.293 2.375,-1.052 1.369,-1.743 0.685,-1.391 0.26,-0.777 0,0" /></g><g
           transform="translate(7195.0542,7198.5625)"
           id="g68"><path
             id="path70"
             style="fill:none;stroke:#000000;stroke-width:0.5;stroke-linecap:butt;stroke-linejoin:miter;stroke-miterlimit:4;stroke-dasharray:none;stroke-opacity:1"
             d="M 0,0 C 1.419,0.293 2.375,-1.052 1.369,-1.743 0.685,-1.391 0.26,-0.777 0,0 Z" /></g><g
           transform="translate(7202.4014,7192.2109)"
           id="g72"><path
             id="path74"
             style="fill:#000000;fill-opacity:1;fill-rule:evenodd;stroke:none"
             d="M 0,0 C -1.383,0.443 -2.146,1.507 -2.864,2.615 -1.636,2.936 1.115,1.635 0,0" /></g><g
           transform="translate(7202.4014,7192.2109)"
           id="g76"><path
             id="path78"
             style="fill:none;stroke:#000000;stroke-width:0.5;stroke-linecap:butt;stroke-linejoin:miter;stroke-miterlimit:4;stroke-dasharray:none;stroke-opacity:1"
             d="M 0,0 C -1.383,0.443 -2.146,1.507 -2.864,2.615 -1.636,2.936 1.115,1.635 0,0 Z" /></g></g></g></g></svg>