<?xml version="1.0" encoding="UTF-8" standalone="no"?>
<svg
   xmlns:dc="http://purl.org/dc/elements/1.1/"
   xmlns:cc="http://creativecommons.org/ns#"
   xmlns:rdf="http://www.w3.org/1999/02/22-rdf-syntax-ns#"
   xmlns:svg="http://www.w3.org/2000/svg"
   xmlns="http://www.w3.org/2000/svg"
   viewBox="0 0 36.25 23.75"
   height="23.75"
   width="36.25"
   xml:space="preserve"
   version="1.1"
   id="svg2"><metadata
     id="metadata8"><rdf:RDF><cc:Work
         rdf:about=""><dc:format>image/svg+xml</dc:format><dc:type
           rdf:resource="http://purl.org/dc/dcmitype/StillImage" /></cc:Work></rdf:RDF></metadata><defs
     id="defs6"><clipPath
       id="clipPath12"
       clipPathUnits="userSpaceOnUse"><path
         id="path14"
         d="m 0,0 14400,0 0,14400 L 0,14400 0,0 Z" /></clipPath><clipPath
       id="clipPath20"
       clipPathUnits="userSpaceOnUse"><path
         id="path22"
         d="m 0,14400 14400,0 L 14400,0 0,0 0,14400 Z" /></clipPath></defs><g
     clip-path="url(#clipPath12)"
     transform="matrix(1.25,0,0,-1.25,-8982.1125,9013.7)"
     id="g10"><g
       id="g16"><g
         clip-path="url(#clipPath20)"
         id="g18"><g
           transform="translate(7202.1436,7193.7148)"
           id="g24"><path
             id="path26"
             style="fill:#000000;fill-opacity:1;fill-rule:nonzero;stroke:none"
             d="m 0,0 c 1.126,1.744 2.64,2.888 3.877,4.182 1.256,1.315 2.266,2.723 2.575,5.124 l -0.052,0 C 6.291,9.307 6.153,9.3 5.997,9.298 5.789,9.303 5.549,9.302 5.265,9.425 4.971,9.535 4.686,9.893 4.65,10.25 l -0.037,0.254 0.15,0.207 c 1.166,1.523 3.091,3.03 3.034,4.623 0,0.053 -0.002,0.107 -0.006,0.161 C 7.759,15.498 7.728,15.499 7.696,15.499 7.318,15.494 7.035,15.331 6.684,14.92 6.344,14.514 6.02,13.889 5.7,13.2 5.037,11.833 4.477,10.185 3.101,9.411 L 2.977,9.347 2.839,9.34 C 2.052,9.303 1.251,9.289 0.44,9.289 c -2.294,0 -4.661,0.112 -6.916,0.112 -1.8,0 -3.527,-0.073 -5.081,-0.324 0.383,-2.28 1.364,-3.729 2.584,-5.033 C -7.717,2.707 -6.177,1.572 -4.888,0 L 0,0 Z m 0.349,-1.25 -5.537,0 -0.306,0 -0.188,0.24 c -1.177,1.524 -2.767,2.684 -4.2,4.197 -1.432,1.506 -2.677,3.42 -2.999,6.329 l -0.065,0.573 0.565,0.11 c 1.83,0.362 3.839,0.452 5.905,0.453 2.295,0 4.662,-0.113 6.916,-0.113 0.746,0 1.478,0.013 2.193,0.044 0.507,0.325 1.003,1.129 1.446,2.091 0.492,1.028 0.937,2.184 1.642,3.045 0.463,0.569 1.133,1.036 1.975,1.031 0.271,0 0.552,-0.046 0.838,-0.138 l -0.189,-0.596 0.189,0.596 0.34,-0.108 0.079,-0.349 C 9.018,15.876 9.048,15.602 9.048,15.334 8.998,13.191 7.282,11.741 6.235,10.555 6.288,10.556 6.343,10.557 6.4,10.557 6.593,10.555 6.813,10.553 7.072,10.455 7.333,10.37 7.632,10.094 7.715,9.761 L 7.748,9.646 7.736,9.527 C 7.468,6.606 6.188,4.767 4.777,3.314 3.363,1.854 1.86,0.714 0.888,-0.943 l -0.181,-0.307 -0.358,0 z" /></g></g></g></g></svg>