<?xml version="1.0" encoding="UTF-8" standalone="no"?>
<svg
   xmlns:dc="http://purl.org/dc/elements/1.1/"
   xmlns:cc="http://creativecommons.org/ns#"
   xmlns:rdf="http://www.w3.org/1999/02/22-rdf-syntax-ns#"
   xmlns:svg="http://www.w3.org/2000/svg"
   xmlns="http://www.w3.org/2000/svg"
   viewBox="0 0 30 23.75"
   height="23.75"
   width="30"
   xml:space="preserve"
   version="1.1"
   id="svg2"><metadata
     id="metadata8"><rdf:RDF><cc:Work
         rdf:about=""><dc:format>image/svg+xml</dc:format><dc:type
           rdf:resource="http://purl.org/dc/dcmitype/StillImage" /></cc:Work></rdf:RDF></metadata><defs
     id="defs6"><clipPath
       id="clipPath12"
       clipPathUnits="userSpaceOnUse"><path
         id="path14"
         d="m 0,0 14400,0 0,14400 L 0,14400 0,0 Z" /></clipPath><clipPath
       id="clipPath20"
       clipPathUnits="userSpaceOnUse"><path
         id="path22"
         d="m 0,14400 14400,0 L 14400,0 0,0 0,14400 Z" /></clipPath></defs><g
     clip-path="url(#clipPath12)"
     transform="matrix(1.25,0,0,-1.25,-8985.2375,9013.7)"
     id="g10"><g
       id="g16"><g
         clip-path="url(#clipPath20)"
         id="g18"><g
           transform="translate(7203.4834,7209.8208)"
           id="g24"><path
             id="path26"
             style="fill:none;stroke:#000000;stroke-width:1.87100005;stroke-linecap:round;stroke-linejoin:round;stroke-miterlimit:4;stroke-dasharray:none;stroke-opacity:1"
             d="m 0,0 c -2.874,-1.534 -2.099,-5.259 -2.099,-5.259 m -0.054,-9.377 c 0,0 1.289,-3.212 4.4,-1.645 4.765,2.398 1.065,5.312 1.065,5.312 0,0 -0.549,-0.367 1.959,2.179 2.657,2.698 2.199,6.443 0.182,6.368 -4.307,-0.159 -7.057,-5.693 -7.057,-5.693" /></g><g
           transform="translate(7199.002,7204.5615)"
           id="g28"><path
             id="path30"
             style="fill:none;stroke:#000000;stroke-width:1.87100005;stroke-linecap:round;stroke-linejoin:round;stroke-miterlimit:4;stroke-dasharray:none;stroke-opacity:1"
             d="m 0,0 c 0,0 0.779,3.725 -2.096,5.259 m 1.607,-8.114 c 0,0 -2.752,5.533 -7.061,5.692 -2.017,0.075 -2.475,-3.67 0.184,-6.368 2.506,-2.546 1.958,-2.179 1.958,-2.179 0,0 -3.7,-2.914 1.068,-5.311 3.11,-1.568 4.401,1.644 4.401,1.644" /></g></g></g></g></svg>