<svg xmlns="http://www.w3.org/2000/svg" viewBox="0 0 36.25 23.75" height="23.75" width="36.25">
<defs
     id="defs6"><clipPath
       id="clipPath12"
       clipPathUnits="userSpaceOnUse"><path
         id="path14"
         d="m 0,0 14400,0 0,14400 L 0,14400 0,0 Z" /></clipPath><clipPath
       id="clipPath20"
       clipPathUnits="userSpaceOnUse"><path
         id="path22"
         d="m 0,14400 14400,0 L 14400,0 0,0 0,14400 Z" /></clipPath></defs><path
     d="M 17.888672 0.46289062 L 17.8125 0.52148438 C 15.704213 2.1652736 14.306376 4.5054642 13.183594 7.0996094 C 11.183977 5.9492421 8.1562464 4.8588982 5.0214844 5.5917969 L 4.9335938 5.6113281 L 4.9101562 5.6992188 C 4.2890682 8.1101359 4.9072564 11.000485 5.7558594 12.724609 C 3.421471 12.9468 1.958297 14.04431 0.33398438 14.908203 L 0.23632812 14.958984 L 0.25585938 15.066406 C 0.87687417 18.549184 3.7339952 21.237999 7.2421875 22.5 C 10.722216 23.75187 14.853648 23.5956 18.126953 21.410156 C 21.39964 23.595608 25.532154 23.751872 29.011719 22.5 C 32.519446 21.237996 35.37508 18.549176 35.996094 15.066406 L 36.013672 14.972656 L 35.933594 14.917969 C 34.374459 13.843045 32.45769 13.146963 30.494141 12.509766 C 31.357202 10.767153 31.855662 8.104744 31.34375 5.7050781 L 31.322266 5.6113281 L 31.228516 5.5898438 C 27.995868 4.8685707 24.96105 5.9679325 22.853516 7.0996094 C 21.876952 4.2813449 20.5013 1.8255963 17.974609 0.5078125 L 17.888672 0.46289062 z M 17.908203 2.390625 C 17.910318 2.3917413 17.91195 2.3934127 17.914062 2.3945312 L 17.904297 2.4121094 L 17.896484 2.4023438 C 17.900463 2.398513 17.904219 2.3944505 17.908203 2.390625 z M 17.931641 2.6171875 C 19.907804 3.7175864 20.888159 5.8315667 21.498047 8.359375 C 19.86409 9.4131656 18.928644 11.139489 18.119141 12.960938 C 17.296287 10.950975 15.884664 9.5547581 14.753906 7.9296875 C 15.421851 5.7614549 16.503418 4.0162714 17.931641 2.6171875 z M 7.4140625 7.0078125 C 9.8494119 7.1080752 11.52588 7.9519959 13.105469 8.9316406 C 12.756985 10.681947 13.254301 12.436492 13.501953 14.125 C 11.914897 13.103563 9.8688735 12.559776 7.3828125 12.46875 C 6.6478575 11.028947 6.1846316 9.3291686 6.3222656 7.0117188 C 6.7030933 6.9938949 7.0661554 6.9934893 7.4140625 7.0078125 z M 28.835938 7.0097656 C 29.184297 6.9957787 29.548303 6.9953783 29.927734 7.0117188 C 30.102344 9.3503989 29.450412 10.847802 28.867188 12.470703 C 26.209443 12.472703 24.313402 13.246687 22.546875 14.123047 C 23.178116 12.770868 23.186689 10.867668 23.150391 8.9296875 C 24.682546 7.9123361 26.397421 7.107674 28.835938 7.0097656 z M 21.515625 10.457031 C 21.666653 12.979561 20.561516 15.530638 18.982422 16.853516 C 19.085293 13.979604 20.19636 12.134163 21.515625 10.457031 z M 14.603516 10.605469 C 16.19957 11.928998 16.98141 14.08904 17.220703 16.816406 C 15.623272 15.492716 14.842513 13.334786 14.603516 10.605469 z M 6.390625 13.910156 C 6.3938566 13.914775 6.3971546 13.919214 6.4003906 13.923828 L 6.3867188 13.933594 L 6.3808594 13.914062 C 6.3841101 13.913014 6.3873769 13.911207 6.390625 13.910156 z M 29.650391 13.910156 L 29.646484 13.931641 L 29.638672 13.927734 C 29.642439 13.921698 29.646632 13.916202 29.650391 13.910156 z M 29.701172 14.101562 C 31.412391 14.42297 32.932716 14.923479 34.089844 15.763672 C 32.942613 18.32488 29.915334 21.281148 26.302734 21.759766 C 24.984253 21.934452 23.547428 21.899939 22.292969 21.568359 C 21.127902 21.260406 20.161489 20.667081 19.535156 19.789062 C 24.271454 19.263548 27.647153 17.336101 29.701172 14.101562 z M 6.3359375 14.103516 C 8.5592945 17.231808 11.851781 19.317751 16.71875 19.791016 C 16.117395 20.664109 15.175425 21.243199 14.041016 21.542969 C 12.818577 21.866002 11.423795 21.900595 10.169922 21.759766 C 6.4182099 21.338198 3.4887511 18.420692 2.15625 15.960938 C 2.5669947 15.408815 3.1868014 15.04905 3.9375 14.791016 C 4.6909632 14.532031 5.5417285 14.352872 6.3359375 14.103516 z M 8.7460938 14.160156 C 11.726272 14.535718 14.245878 16.152052 15.298828 17.865234 C 12.361502 17.361385 10.090128 16.220285 8.7460938 14.160156 z M 27.496094 14.166016 C 26.129446 16.196302 23.87485 17.338873 20.923828 17.814453 C 22.48151 15.961094 24.516068 14.602667 27.496094 14.166016 z "
     id="path26" />
</svg>
