<svg xmlns="http://www.w3.org/2000/svg" viewBox="0 0 30 23.75" height="23.75" width="30">
<defs
     id="defs6"><clipPath
       id="clipPath12"
       clipPathUnits="userSpaceOnUse"><path
         id="path14"
         d="m 0,0 14400,0 0,14400 L 0,14400 0,0 Z" /></clipPath><clipPath
       id="clipPath20"
       clipPathUnits="userSpaceOnUse"><path
         id="path22"
         d="m 0,14400 14400,0 L 14400,0 0,0 0,14400 Z" /></clipPath></defs><path
     d="m 10.884766,0.54296875 c -0.463066,-0.00392 -0.79238,0.31670204 -0.882813,0.68554685 -0.09043,0.3688449 0.05248,0.8049045 0.464844,1.015625 1.500617,0.8013461 2.008445,2.1070368 2.189453,3.3417969 0.180682,1.232534 -0.0293,2.2519531 -0.0293,2.2519531 -0.05877,0.2815001 0.0038,0.5343754 0.140625,0.71875 0.136798,0.1843747 0.340418,0.3025139 0.556641,0.3476563 0.216224,0.045142 0.449295,0.018535 0.648437,-0.095703 0.199142,-0.1142383 0.359198,-0.3200625 0.417969,-0.6015626 l -0.002,0 c 0,0 0.279794,-1.3072824 0.04883,-2.8828124 C 14.206439,3.7476987 13.408064,1.7743487 11.316406,0.65625 11.184367,0.5831952 11.035666,0.54372395 10.884766,0.54296875 Z"
     id="path4225" /><path
     d="m 19.087891,0.54296875 c -0.141341,0.0053 -0.278681,0.04463 -0.402344,0.11328125 -2.091983,1.1179619 -2.892638,3.0912682 -3.125,4.6679688 -0.232149,1.5752505 0.04492,2.8828123 0.04492,2.8828124 0.05877,0.2815 0.216874,0.4873243 0.416015,0.6015626 0.199142,0.1142383 0.434167,0.1408457 0.650391,0.095703 0.216223,-0.045142 0.417889,-0.1632816 0.554687,-0.3476563 0.136442,-0.1838926 0.200562,-0.4361823 0.142579,-0.7167968 l 0,-0.00195 c -3.58e-4,-0.00177 -0.208884,-1.0201459 -0.02734,-2.2519531 0.182076,-1.2354761 0.690287,-2.5425267 2.191406,-3.34375 0.415366,-0.2146614 0.553498,-0.6553454 0.457031,-1.0253906 -0.09647,-0.37004537 -0.433089,-0.68926865 -0.90039,-0.67382815 a 0.15001501,0.15001501 0 0 0 -0.002,0 z"
     id="path4223" /><path
     d="m 4.0820312,3.5761719 a 0.15001501,0.15001501 0 0 0 -0.042969,0.013672 l -0.00195,0 C 3.1510754,3.5814637 2.3483367,4.0062097 1.8554688,4.6679688 1.3538847,5.3414306 1.1209001,6.2028269 1.0957031,7.1328125 1.0457731,8.9758206 1.836028,11.169921 3.625,13.011719 c 0,0 0,0.002 0,0.002 a 0.15001501,0.15001501 0 0 0 0.035156,0.05469 c 1.2745351,1.29488 1.6434422,1.719666 1.9082032,2.029297 -0.423738,0.431398 -0.9361587,1.021936 -1.2441406,1.984375 -0.2625081,0.82034 -0.2834737,1.850327 0.2402343,2.837891 0.522098,0.984531 1.5183074,1.880776 3.1152344,2.683594 2.214206,1.116359 4.1043425,0.518339 5.1972655,-0.414063 1.084253,-0.925005 1.544368,-2.107947 1.544922,-2.109375 l 0,-0.002 c 0.106111,-0.266152 0.08853,-0.525572 -0.01367,-0.730469 -0.102475,-0.205445 -0.283272,-0.35722 -0.488281,-0.439453 -0.20501,-0.08223 -0.438255,-0.09721 -0.654297,-0.01953 -0.216043,0.07768 -0.408566,0.25263 -0.515625,0.519531 -0.0011,0.0025 -0.351039,0.823759 -1.042969,1.414063 -0.352309,0.300565 -0.739253,0.545067 -1.242187,0.61914 -0.5029353,0.07407 -1.1321466,-0.02251 -1.9746096,-0.447265 a 0.15001501,0.15001501 0 0 0 -0.00195,0 l -0.00391,-0.002 C 7.104924,20.297891 6.442108,19.615221 6.15625,19.076172 5.867465,18.531607 5.8856554,18.102199 6.0371094,17.628906 c 0.141657,-0.442677 0.4189531,-0.841567 0.6738281,-1.138672 0.248784,-0.290005 0.4588111,-0.4691 0.5175781,-0.519531 l 0.00586,-0.0039 c 0.02658,-0.018 0.06989,-0.0472 0.109375,-0.07422 0.02079,-0.01423 0.040547,-0.02741 0.054687,-0.03711 0.0071,-0.0049 0.013428,-0.0089 0.017578,-0.01172 0.0021,-0.0014 0.00261,-0.003 0.00391,-0.0039 l 0.00195,-0.0039 a 0.15001501,0.15001501 0 0 0 0.019531,-0.01563 c 7.16e-4,-7.05e-4 0.1899004,-0.273924 0.1933594,-0.279296 l 0.00195,-0.002 c 0.0013,-0.0032 0.00536,-0.01422 0.00586,-0.01562 5.28e-4,-0.0016 0.00115,-0.0034 0.00195,-0.0059 0.0016,-0.0049 0.00326,-0.01119 0.00586,-0.01953 0.0052,-0.01667 0.012291,-0.03937 0.019531,-0.06445 0.01448,-0.05016 0.030679,-0.102385 0.037109,-0.160156 0.0083,-0.07502 0.00745,-0.141936 0.00195,-0.197266 -0.02042,-0.200628 -0.08598,-0.309816 -0.1074219,-0.351563 C 7.5376025,14.60008 7.4787442,14.525643 7.4101562,14.4375 7.1251963,14.071224 6.5172984,13.401796 4.9433594,11.802734 3.4462134,10.283629 2.8593902,8.4767138 2.8945312,7.1796875 2.9120912,6.5316538 3.0911411,6.0210436 3.2988281,5.7421875 3.5163091,5.450181 3.6737304,5.3614882 4.0371094,5.375 6.3512784,5.460392 8.378487,7.0409912 9.828125,8.6992188 c 1.447643,1.6559452 2.258849,3.2794132 2.261719,3.2851562 0.121891,0.272556 0.330523,0.444604 0.55664,0.509766 0.226117,0.06516 0.463236,0.03064 0.666016,-0.07031 0.202779,-0.100947 0.374675,-0.270536 0.458984,-0.490234 0.08387,-0.218563 0.07158,-0.485825 -0.07031,-0.746094 C 13.700072,11.1853 12.79716,9.361648 11.181641,7.5136719 9.5715586,5.6723466 7.1891138,3.7090021 4.1367188,3.5820312 a 0.15001501,0.15001501 0 0 0 -0.019531,-0.00391 0.15001501,0.15001501 0 0 0 -0.013672,-0.00195 c -0.0013,-4.86e-5 -0.00261,4.65e-5 -0.00391,0 l -0.00195,0 a 0.15001501,0.15001501 0 0 0 -0.015625,0 z"
     id="path4221" /><path
     d="m 25.892578,3.5761719 c -3.068203,0.1132677 -5.459169,2.0925057 -7.074219,3.9414062 -1.615527,1.8494468 -2.517578,3.6738279 -2.517578,3.6738279 -0.128021,0.257538 -0.13265,0.517483 -0.04687,0.730469 0.08577,0.212985 0.253354,0.378228 0.451172,0.476563 0.197817,0.09833 0.430772,0.132468 0.652344,0.07226 0.221572,-0.06021 0.426667,-0.220977 0.554687,-0.478515 0,0 0.814377,-1.631871 2.263672,-3.2910161 1.44802,-1.6576862 3.46828,-3.2392103 5.779297,-3.3261719 l 0.0039,0 a 0.15001501,0.15001501 0 0 0 0.002,0 c 0.362898,-0.013494 0.522519,0.076854 0.740234,0.3691406 0.207896,0.2791049 0.386609,0.7874393 0.404297,1.4355469 0.0354,1.2971103 -0.550972,3.1060135 -2.046875,4.6250005 -1.575206,1.599073 -2.183468,2.268146 -2.46875,2.634765 -0.06854,0.08808 -0.127314,0.162077 -0.191406,0.287109 -0.02158,0.04211 -0.08742,0.151956 -0.107422,0.353516 -0.0054,0.0547 -0.0068,0.121372 0.002,0.197266 0.0067,0.05881 0.02407,0.109927 0.03906,0.160156 0.015,0.05023 0.03297,0.104951 0.0332,0.105469 a 0.15001501,0.15001501 0 0 0 0.002,0.002 c 4.6e-4,10e-4 0.192632,0.278585 0.193359,0.279297 0,0 0.01872,0.01506 0.01953,0.01563 l 0.002,0.002 0.0059,0.0039 c 0.0041,0.0028 0.0086,0.007 0.01563,0.01172 0.01412,0.0095 0.03393,0.02118 0.05469,0.03516 0.03652,0.02458 0.075,0.0505 0.101563,0.06836 0.10658,0.09183 0.918103,0.784275 1.201172,1.667968 0.151742,0.473714 0.171152,0.902704 -0.117188,1.447266 -0.285783,0.539734 -0.946367,1.222596 -2.328125,1.917969 a 0.15001501,0.15001501 0 0 0 -0.0059,0.0039 c -0.838963,0.421195 -1.468783,0.519566 -1.970704,0.445312 -0.503447,-0.07448 -0.892085,-0.320525 -1.24414,-0.621093 -0.691406,-0.59029 -1.037981,-1.411512 -1.039063,-1.414063 l -0.002,-0.002 c -0.107297,-0.265207 -0.298445,-0.44019 -0.513672,-0.517578 -0.216042,-0.07768 -0.45124,-0.0627 -0.65625,0.01953 -0.205009,0.08223 -0.383854,0.234008 -0.486328,0.439453 -0.102474,0.205445 -0.120733,0.465521 -0.01367,0.732422 5.55e-4,0.0014 0.459236,1.184135 1.542969,2.109375 1.092455,0.932686 2.982552,1.529607 5.197266,0.414063 1.596071,-0.803228 2.589906,-1.700782 3.111328,-2.685547 0.522936,-0.987625 0.503016,-2.015579 0.240234,-2.835938 -0.308418,-0.962426 -0.820423,-1.553175 -1.24414,-1.984375 0.264586,-0.309457 0.632169,-0.733929 1.908203,-2.029297 1.824432,-1.852586 2.615231,-4.0769098 2.564453,-5.9374996 C 28.878921,6.2009454 28.646077,5.3413062 28.144531,4.6679688 27.638136,3.9881213 26.807635,3.5421465 25.892578,3.5761719 Z"
     id="path4180" /></svg>
