<svg xmlns="http://www.w3.org/2000/svg" viewBox="0 0 25 23.75" height="23.75" width="25">
  <path 
     d="M 9.037,0.318 C 7.881,0.156 8.563,1.174 8.447,1.821 8.263,4.201 6.357,5.916 4.757,7.481 4.067,8.124 3.397,8.787 2.75,9.474 4.186,9.479 5.618,9.024 6.68,8.024 7.81,7.167 8.59,5.786 9.738,5.054 12.616,5.019 15.663,4.87 18.198,3.354 18.142,2.136 16.715,2.058 15.801,2.259 14.114,2.413 12.591,3.319 10.881,3.362 11.585,2.539 12.611,0.874 11.026,0.625 10.382,0.516 9.662,0.27 9.037,0.318 Z"
     id="path10244" />

  <path 
     d="M 14.203,5.203 C 12.493,5.331 10.943,6.288 9.209,6.219 8.533,6.104 7.577,7.467 8.659,7.453 11.229,8.057 14.023,7.601 16.351,6.386 16.219,5.411 15.041,5.108 14.201,5.202 Z"
     id="path10803" />

  <path 
     d="m 16.373,7.078 c -2.565,1.427 -5.598,1.41 -8.43,1.83 -1.006,0.12 -2.004,0.296 -2.996,0.5 0.876,0.72 1.94,1.234 3.096,1.227 0.016,1.413 0.96,2.87 0.25,4.25 -2.09,0.14 -4.16,0.502 -6.25,0.627 0.11,0.996 0.945,1.86 1.995,1.75 0.674,0.072 2.24,-0.43 2.318,-0.125 -1.808,1.787 -3.92,3.218 -6.06,4.574 1.59,0.08 3.234,-0.095 4.623,-0.948 1.266,-0.573 2.656,-2.158 3.53,-2.555 0,1.37 -0.556,2.86 0.128,4.143 0.262,0.403 1.34,1.376 1.364,0.39 0.5,-1.902 0.268,-3.89 0.285,-5.832 0.982,1.598 2.218,3.26 4.127,3.764 0.925,-0.846 0.578,-2.402 -0.424,-3.036 -1.032,-0.782 -2.438,-1.227 -3.703,-0.792 -0.182,-1.162 1.553,-0.61 2.31,-0.856 0.898,-0.06 1.95,-0.26 2.422,-1.123 -0.58,-1.082 -1.963,-0.98 -2.973,-0.698 -0.49,0.206 -2.437,0.434 -1.325,-0.053 1.453,-0.408 2.93,-0.925 4.027,-2.008 -0.576,-1.262 -2.26,-1.492 -3.035,-0.308 -0.498,0.356 -1.16,1.915 -1.328,1.848 0.08,-0.89 0.206,-1.778 0.208,-2.673 -0.29,-0.312 -1.312,-0.5 -0.355,-0.53 C 12,10.128 13.784,9.53 15.645,9.48 c -0.526,3.447 -0.602,7.258 1.26,10.344 1.42,2.395 4.232,3.65 6.953,3.612 1.065,0.366 0.903,-0.617 0.786,-1.33 -0.27,-1.76 -0.952,-3.46 -0.902,-5.266 -0.787,0.56 -1.248,1.442 -1.305,2.412 -0.048,0.92 -0.527,1.696 -1.495,1.11 -2.507,-0.83 -3.62,-3.65 -3.784,-6.086 -0.14,-2.185 0.364,-4.56 1.947,-6.163 -0.81,-0.57 -1.72,-1.023 -2.734,-1.035 z"
     id="path10246" />

  <path 
     d="m 5.74,12.016 c -1.166,-0.324 -1.135,0.672 -0.556,1.363 0.396,0.554 1.315,2.04 2.04,1.224 0.85,-0.768 0.224,-2.154 -0.77,-2.433"
     id="path10248" />
</svg>