<svg xmlns="http://www.w3.org/2000/svg" viewBox="0 0 23.75 23.75" height="23.75" width="23.75">
  <defs
     id="defs6">
    <clipPath
       id="clipPath12"
       clipPathUnits="userSpaceOnUse">
      <path
         id="path14"
         d="m 0,0 14400,0 0,14400 L 0,14400 0,0 Z" />
    </clipPath>
    <clipPath
       id="clipPath22"
       clipPathUnits="userSpaceOnUse">
      <path
         id="path24"
         d="m 0,14400 14400,0 L 14400,0 0,0 0,14400 Z" />
    </clipPath>
    <clipPath
       id="clipPath30"
       clipPathUnits="userSpaceOnUse">
      <path
         id="path32"
         d="m 7192,7208.46 18,0 0,-18 -18,0 0,18 z" />
    </clipPath>
  </defs>
  <g
     id="g28"
     transform="matrix(1.25,0,0,-1.25,-8989.375,9011.2625)" />
  <path
     d="m 11.875,0.72666181 c -1.516645,0.003068 -1.569088,0.0803429 -2.4105798,0.2241781 C 6.8394959,1.5282539 4.3188258,2.8965548 2.7482275,5.1283646 -0.08332461,8.8386397 -0.21518629,14.32334 2.427071,18.169069 4.6671202,21.569158 8.87042,23.670378 12.93738,23.121612 16.776756,22.757726 20.42291,20.364917 22.083326,16.85033 24.108972,12.803473 23.384664,7.5755914 20.291148,4.2616096 18.174453,1.8979572 15.04971,0.7049637 11.875,0.72666181 Z M 8.9902344,1.4003906 C 6.5745176,2.7488369 5.5016452,5.973695 6.6310939,8.4978318 7.5132205,10.666872 9.826345,12.100227 12.15764,11.981751 c 2.779679,0.07692 5.200786,2.562681 5.205802,5.343224 0.163538,3.013252 -2.601927,5.789831 -5.626253,5.564812 C 7.3771483,22.902851 3.2213229,20.020737 1.6425123,15.967996 0.00305241,11.984952 0.99043709,7.0901725 4.0878906,4.0859375 5.4224525,2.7407326 7.1780642,1.8924511 8.9902344,1.4003906 Z M 11.943359,4.171875 c 1.607332,-0.08033 2.694832,1.9649975 1.731387,3.2534216 C 12.847292,8.7884621 10.569737,8.5671317 10.019506,7.0706334 9.4172656,5.7447729 10.485598,4.1315225 11.943359,4.171875 Z m -0.08984,10.982422 c -1.664702,-0.07494 -2.8714929,1.948613 -2.0109867,3.377102 0.7224837,1.485676 3.0449997,1.598134 3.9070717,0.188605 1.043459,-1.44986 -0.110279,-3.616912 -1.896085,-3.565707 z"
     id="path40"/>
</svg>
